<?xml version='1.0' encoding='utf-8'?>
<svg xmlns="http://www.w3.org/2000/svg" version="1.1" id="Layer_1" x="0px" y="0px" viewBox="0 0 1735.112 1638.521" enable-background="new 0 0 1735.112 1638.521"> <path d="M512.31,19.323c4.998,1.997,9.093,5.723,13.875,8.203c2.925,7.77,2.48,16.329,0.292,24.226 c3.65,8.749,2.607,18.516,5.163,27.558c17.264,68.024,1.77,95.271,53.184,107.715c16.401,1.672,21.143-26.837,30.305-42.603 c4.146-7.581,16.972-39.45,21.925-56.655c1.488-4.426-1.055-8.839-0.509-13.315c0.382-4.782,1.145-9.538,1.882-14.282 c4.031-1.119,7.91-3.039,12.12-3.383c32.56,9.833,32.642,28.134,23.234,38.317c-2.416,1.908-5.545,2.658-7.948,4.578 c-29.167,35.284-25.321,118.429-34.438,136.406c8.393-6.041,15.782-13.328,23.692-19.979c24.2-24.2,29.168-18.839,43.709-42.565 c1.501-2.963,5.519-3.039,7.338-5.685c1.03-1.78,1.615-3.764,2.365-5.659c2.442-0.572,4.794-1.45,7.223-2.086 c9.538,0.509,18.122,6.079,24.481,12.895c3.281,3.167,3.714,7.77,4.12,12.056c-3.192,7.033-8.33,14.053-16.202,16.036 c-19.858,8.574-36.66,31.062-46.609,36.41c-21.753,12.197-35.369,48.8-47.13,66.168c-2.009,3.485-5.252,6.766-4.858,11.102 c0.932,38.511,10.584,47.104,15.261,87.915c6.163,27.216,0.242,56.12,18.008,95.99c4.375,10.454,7.643,21.721,15.134,30.483 c24.675,35.958,25.802,42.234,41.242,55.524c9.042,7.91,16.431,17.448,25.257,25.562c37.814,38.01,15.399,31.455,41.064,50.081 c0.941,0.038,2.798,0.127,3.726,0.165c10.557-20.725,41.315-50.274,39.742-76.075c-0.851-18.509,14.01-49.137,22.344-66.168 c-0.903-7.211-2.454-14.396-1.87-21.708c1.145-5.812-3.93-10.644-2.633-16.482c1.437-10.021-1.284-20.271,1.323-30.165 c4.351-18.585,20.107-22.817,24.697-25.053c3.904-1.793,6.193-5.735,9.919-7.808c2.175-1.475,4.909-1.17,7.401-1.526 c4.629-6.244,12.577-8.304,18.008-13.62c5.863-6.066,12.628-11.153,18.631-17.067c13.939-11.224,20.157-21.649,43.811-45.146 c39.711-22.616,80.537-19.852,116.668,13.023c3.891,3.396,4.108,9.004,7.071,13.048c4.451,6.168,6.842,13.493,10.543,20.106 c6.778,15.884,17.168,29.886,24.443,45.515c3.23,5.303,9.016,8.928,10.619,15.235c2.531,0.967,5.952,0.878,7.554,3.434 c2.633,4.108,4.273,9.284,8.902,11.687c8.61,4.909,15.528,13.226,17.41,23.107c4.284,22.778-13.93,39.648-15.452,62.531 c4.222,15.808,5.888,32.213,6.867,48.529c3.838,21.578-7.53,32.962-9.271,41.764c1.005,10.288,0.941,20.729,3.37,30.852 c3.014,11.535,2.505,23.616,5.074,35.227c7.745,6.371,15.07,13.62,24.493,17.55c8.775,5.036,17.41,10.479,24.913,17.321 c7.567,7.236,18.135,10.314,25.282,18.058c38.217,39.862,39.907,51.609,53.998,60.305c23.454,14.67,24.824,10.567,29.949,9.538 c24.603-6.808,44.154-37.78,86.884-70.581c29.97-23.113,14.419-9.269,36.791-32.187c-6.844-27.753-47.102-28.035-56.668-31.653 c-13.849-5.15-28.194-8.775-42.565-12.018c-13.707,4.531-32.137-5.815-24.595-23.4c17.987-40.693,34.611-11.169,52.306-4.604 c65.615,20.505,81.332,21.163,102.667,9.207c10.195-5.414,23.443-31.336,27.558-37.427c7.147-10.861,17.511-18.949,25.969-28.69 c5.087-5.659,8.584-12.488,13.468-18.313c8.609-11.624,18.249-23.069,22.599-37.135c3.339-8.695-7.596-18.346,10.733-28.436 c9.442-3.857,36.565,0.873,36.066,15.858c0.509,3.675-1.615,6.88-3.141,10.034c-5.634,2.276-8.724,7.707-13.595,11.026 c-0.564,1.003-31.151,47.557-37.516,61.374c-4.705,9.919-14.727,17.156-15.947,28.627c2.047,1.513,4.286,3.027,6.995,2.76 c10.174,0.089,20.577,3.154,30.585,0.013c20.752-6.032,28.321-23.917,49.865-49.928c7.847-10.39,17.028-19.814,23.591-31.132 c1.742-3.23,3.93-6.193,6.422-8.889c2.289-2.137,2.111-5.468,3.052-8.228c1.92-6.32,6.282-11.535,11.217-15.782 c6.778-1.399,14.065-0.572,19.979,3.192c11.058,6.547,28.503,24.168,6.359,38.521c-4.171,3.192-9.97,2.938-14.014,6.32 c-40.722,33.481-33.08,36.719-51.123,67.173c-4.591,8.953-10.136,17.397-14.371,26.541c-3.307,6.74-3.434,14.447-6.053,21.416 c-1.653,4.616-4.247,8.991-4.744,13.951c0.534,2.823,3.841,2.467,5.926,1.704c6.498-2.81,10.682-8.813,16.202-12.984 c8.253-6.181,17.156-11.611,24.519-18.898c5.57-5.29,10.237-12.361,18.326-13.875c9.686-15.252,24.231-18.21,36.359,5.227 c1.348,4.286,1.081,8.889,1.59,13.328c-3.37,2.785-6.473,5.888-9.932,8.571c-5.875,4.12-14.091,2.175-19.584,6.956 c-7.316,5.989-19.73,9.469-39.869,31.539c-29.029,31.771-36.294,32.889-64.782,47.105c-38.329,19.369-48.078,7.33-94.019,48.3 c-48.378,41.655-40.636,42.626-113.425,93.943c-10.466,7.185-17.804,17.906-27.953,25.485 c-30.137,23.533-57.655-19.58-67.834-28.817c-18.3-16.812-40.988-27.584-60.712-42.488c-10.314-7.185-20.564-14.485-31.03-21.454 c0.75,6.728,0.547,13.824,3.663,20.03c1.831,3.904,2.047,8.292,3.523,12.336c4.68,10.962-1.119,23.069,2.531,34.26 c2.794,24.363-2.937,21.696-4.794,72.005c-12.3,68.598-0.753,28.796-21.657,86.897c-10.609,22.108-23.869,27.896-35.786,41.242 c28.096-11.994,97.337-16.522,149.441-23.578c-1.831-5.646-2.989-11.522-2.772-17.486c-11.233-13.975-15.511-34.333,2.989-38.991 c8.75-2.264,17.639-4.667,26.732-4.833c7.63-0.61,14.561,6.282,14.498,13.849c0.41,38.058-3.406,10.083-2.543,48.733 c25.483,2.706,48.972,14.844,63.268,36.613c5.875-13.366,11.242-27.024,14.79-41.204c4.356-17.057,9.992-13.826,11.751-44.116 c-2.098-7.796-5.863-16.126-2.76-24.201c5.534-20.897,41.317-15.38,52.179-7.618c1.564,2.76,4.159,5.329,3.942,8.737 c0.545,8.479-7.107,20.684-13.455,27.533c-4.696,4.827-34.889,124.441-36.028,142.561c8.025,0.877,14.18-5.392,19.712-10.263 c20.901-21.366-9.547,13.556,72.603-73.798c6.6-7.007,11.191-15.693,18.3-22.255c18.762-19.002,12.56-11.529,24.735-34.807 c0.623-3.472,0.483-7.147,2.111-10.365c8.544-19.224,14.256-28.483,32.518-19.33c25.231,14.854,23.444,31.444,18.402,37.999 c-4.502,5.583-9.296,11.636-16.278,14.142c-3.065,1.335-6.867,2.098-8.355,5.481c-3.357,6.219-8.979,10.708-12.845,16.571 c-5.417,7.363-9.512,15.642-15.375,22.688c-31.874,38.022-24.805,13.647-78.504,95.939c-4.502,6.537-8.012,13.722-12.883,20.017 c-7.805,9.462,5.127,21.516,35.723,8.8c9.614-4.171,20.449-4.489,29.809-9.411c12.615-5.036,21.543-17.092,35.201-19.801 c16.687,0.198,22.328,28.954,13.722,39.563c-6.929,10.362-24.643,7.292-34.12,8.737c-33.065,5.846-119.27,49.465-147.177,55.651 c-64.757,14.02-33.721,23.348-157.351,78.834c-53.918,27.704-90.498,55.695-125.838,35.736 c-55.745-29.616,8.597-99.761,44.193-149.911c-44.649,15.424-96.164,15.87-151.628,20.971c-22.727,1.985-54.603,20.307-87.253,1.946 c-39.97-22.876-67.735,24.335-181.793,13.086c-19.928-1.768-39.881-3.116-59.822-4.642c-10.123-0.788-19.941-3.548-30.013-4.616 c-15.121-2.996,29.024,97.679,35.265,111.62c5.708,12.683,30.63,92.401,36.079,129.169c8.686,41.784-12.187,69.589-58.436,70.301 c-14.854-0.229-29.695,1.348-44.523,0.331c-13.744-0.206-61.198-5.299-74.917-5.608c-113.295-4.493-110.945-8.37-129.882-12.87 c-8.807-1.315-37.306-7.783-59.759-3.167c-30.574,5.86-57.371,5.661-84.85,0.687c-19.291-4.472-3.569-4.134-66.486-17.181 c-29.211-5.051-35.756,6.088-49.648-0.127c-13.952-6.01-12.774-31.084-2.442-40.021c11.118-12.047,32.376,8.647,63.675,9.652 c11.344,0.382,21.797,5.71,33.052,6.549c3.052,0.521,4.769-2.175,5.964-4.489c-0.458-0.801-1.373-2.416-1.819-3.218 c-10.962-2.76-20.36-9.118-30.432-13.938c-64.574-32.287-76.503-26.493-111.314-40.988c-7.3-3.141-13.747-7.897-20.945-11.242 c-6.689-3.79-14.32-5.506-20.805-9.665c-1.844-1.475-4.235-1.081-6.384-0.839c-9.665,1.577-19.648-1.59-27.647-6.956 c-12.727-11.188-2.791-32.069,5.939-43.162c11.49-15.944,31.532,3.458,35.087,5.888c2.861,1.882,3.828,5.354,6.028,7.796 c33.733,23.381,29.667,13.724,49.127,23.463c16.342,8.304,34.375,12.259,51.454,18.72c22.688,8.686,47.079,10.492,70.861,14.269 c4.273,0.827,8.61,0.242,12.692-1.17c-3.365-10.443-33.08-65.009-70.276-121.984c-2.495-4.562-22.839-12.554-25.638-28.042 c2.99-7.962-0.151-9.822,23.476-20.131c20.605-8.76,36.646-2.077,35.125,28.817c2.467,4.298,3.472,9.233,5.71,13.658 c4.082,8.61,11.827,14.663,16.711,22.777c14.082,23.566,27.628,37.248,46.367,57.864c5.1,5.824,9.818,13.849,18.249,14.79 c6.308-0.394,11.077-6.346,11.674-12.399c2.977-41.988-19.608-104.705-19.864-105.706c-1.501-6.27-7.3-10.428-8.546-16.812 c-3.559-17.253-20.795-31.475,30.56-34.451c4.655-0.458,9.118,1.005,13.29,2.9c1.145,2.111,2.315,4.235,3.535,6.333 c0.471,6.448,1.017,13.061-0.699,19.407c-0.649,3.09-2.276,6.244-1.221,9.462c3.268,11.395,1.577,23.412,3.713,34.998 c10.369,56.492,15.798,54.862,23.68,74.587c2.493,5.57,3.764,11.802,7.554,16.736c2.849,3.599,9.093,4.947,12.514,1.412 c2.925-3.141,4.159-7.401,5.29-11.433c14.863-56.505,16.125-32.982,22.319-80.042c1.364-6.553-8.636-29.838,7.147-35.723 c6.346-3.345,13.188,0.013,19.203,2.416c6.651,2.81,14.536,5.011,18.275,11.814c3.981,7.681,1.208,17.944-5.621,23.094 c-4.419,3.996-4.387-0.54-17.601,43.315c-3.171,10.68-4.319,60.259-5.646,72.005c-1.434,11.728-11.631,24.774,35.468,30.343 c1.083,0.113,102.461,10.663,137.283,20.297c-6.257-10.873-14.04-20.767-20.093-31.755c-11.809-15.61-27.222-57.147-37.58-73.264 c-7.115-10.134-32.832-64.667-33.294-65.685c-0.982-2.959-33.457-65.554-11.051-106.66c16.83-25.843,10.715-26.19,50.373-51.289 c41.987-19.508,175.745-50.587,187.796-52.548c28.752-5.157,76.218,7.885,30.521-39.665c-1.827-1.889-21.159-26.455-21.874-27.457 c-4.12-6.015-10.772-9.856-14.269-16.367c-5.545-9.754-12.539-18.771-16.164-29.504c-17.387-50.296-11.682-48.766-15.146-62.849 c0.483-13.506-0.598-27.024-0.839-40.517c0.827-13.162,5.214-25.981,4.337-39.258c0.577-13.007,8.515-59.666,13.786-66.728 c4.197-5.377,6.592-20.374,13.925-30.636c12.496-18.637,13.334-11.2,16.075-41.306c2.166-31.288-18.969-28.402-26.808-30.979 c-17.618-5.238-30.302-25.965-55.511-64.909c-42.601-61.712-42.584-80.468-70.632-89.491c-7.287-1.475-12.425-7.274-18.809-10.632 c-10.034-17.27-7.859-37.987-13.722-56.541c-14.769-62.938-13.834-90.757-15.782-114.417c-6.845-83.71-1.664-43.807-39.347-90.84 c-8.966-11.357-20.03-20.882-28.741-32.467c-12.921-17.563-22.904-37.389-38.47-52.917c-5.659-6.778-13.913-10.581-19.826-17.079 c-2.925-3.065-7.452-3.434-11.166-5.074c-6.931-2.302-11.077-8.699-15.439-14.103c1.017-4.12,1.297-8.432,2.658-12.463 c7.305-12.252,9.136-10.235,18.466-15.769c19.691,9.454,9.226,3.857,18.542,14.014c2.518,3.039,6.6,4.26,8.978,7.44 c22.247,28.386,26.434,25.534,36.651,38.572c3.93,4.604,9.004,9.474,15.452,9.462c6.308-1.221,7.02-8.571,7.91-13.722 c1.068-9.576,5.379-18.491,5.736-28.181c2.714-79.178,0.948-76.256-13.404-112.065c-1.615-4.248-6.003-6.346-8.495-9.907 c-1.132-4.54-2.632-9.042-6.346-12.17c-0.025-2.607-0.242-5.24,0.153-7.821C483.915,23.561,500.144,18.73,512.31,19.323z"/> </svg>